Coordinates
version=1
nRows=13
nColumns=22
inDegrees=yes

Units are S.I. units (second, meters, Newtons, ...)
If the header above contains a line with 'inDegrees', this indicates whether rotational values are in degrees (yes) or radians (no).

endheader
time	pelvis_tilt	pelvis_list	pelvis_rotation	pelvis_tx	pelvis_ty	pelvis_tz	hip_flexion_r	hip_adduction_r	hip_rotation_r	knee_angle_r	ankle_angle_r	subtalar_angle_r	hip_flexion_l	hip_adduction_l	hip_rotation_l	knee_angle_l	ankle_angle_l	subtalar_angle_l	lumbar_extension	lumbar_bending	lumbar_rotation
      1.25000000	     -3.01014795	     -1.44954590	     -4.11821709	     -1.30886629	      0.99121829	     -0.66634528	     30.92909640	     -1.56337893	     -2.70967073	    -34.28380628	      9.20949846	     -0.53866049	     -4.35867251	      2.09102603	    -13.84191174	     -9.33143466	     17.89316311	     -4.28847303	     -8.41416782	     -1.76499381	     -5.66420459
      1.26000000	     -2.98431409	     -1.57010963	     -3.98149454	     -1.30449764	      0.99047817	     -0.66664496	     30.97604935	     -1.43882636	     -3.24991559	    -32.56281222	      9.09697672	     -0.27306149	     -4.70345196	      1.98856219	    -13.79674951	     -9.25884788	     18.16046587	     -4.22556567	     -8.51506054	     -1.60117634	     -5.70068683
      1.27000000	     -2.92961164	     -1.67463770	     -3.85433938	     -1.29994837	      0.98969928	     -0.66687985	     30.96990413	     -1.32161889	     -3.82111541	    -30.83675024	      9.03361221	      0.03084643	     -5.10915866	      1.90551490	    -13.75671636	     -9.14948579	     18.42707800	     -4.11536464	     -8.64411873	     -1.45998198	     -5.70338466
      1.28000000	     -2.87733634	     -1.77268129	     -3.73012528	     -1.29525524	      0.98883527	     -0.66705155	     30.95305304	     -1.19935058	     -4.40480854	    -29.13553218	      8.97988574	      0.37425044	     -5.52105364	      1.82273081	    -13.73282795	     -9.04300795	     18.71252754	     -3.97720224	     -8.77146530	     -1.32793768	     -5.69339659
      1.29000000	     -2.82885826	     -1.86432776	     -3.61424927	     -1.29043775	      0.98788693	     -0.66714328	     30.93636283	     -1.06512800	     -4.96745209	    -27.48561268	      8.91886935	      0.78079141	     -5.93291551	      1.73916853	    -13.72582017	     -8.94716156	     19.01532048	     -3.81285613	     -8.89614237	     -1.20493652	     -5.66285294
      1.30000000	     -2.76734076	     -1.94636499	     -3.51808902	     -1.28550714	      0.98688818	     -0.66715000	     30.90827759	     -0.91733213	     -5.46186957	    -25.90615081	      8.86611345	      1.31999218	     -6.36418025	      1.66324343	    -13.71467916	     -8.85907915	     19.32874634	     -3.58073501	     -9.04475134	     -1.09516009	     -5.59129256
      1.31000000	     -2.73027364	     -2.03209833	     -3.42377021	     -1.28046085	      0.98578478	     -0.66709599	     30.90894641	     -0.75574121	     -5.93343316	    -24.40301146	      8.77702176	      1.90131701	     -6.75537525	      1.57122341	    -13.72375532	     -8.81531381	     19.66446946	     -3.36605034	     -9.16897308	     -0.97767660	     -5.52196271
      1.32000000	     -2.71013821	     -2.12587509	     -3.33259300	     -1.27528274	      0.98459911	     -0.66696996	     30.92723979	     -0.57720490	     -6.38246635	    -22.97571978	      8.67499499	      2.49565493	     -7.11495501	      1.45876547	    -13.75109316	     -8.81606924	     20.01425297	     -3.17131847	     -9.27797092	     -0.84944837	     -5.45103101
      1.33000000	     -2.68565560	     -2.21366966	     -3.25707827	     -1.26997836	      0.98336595	     -0.66677234	     30.94176076	     -0.39014056	     -6.77080139	    -21.62498351	      8.59347341	      3.15455499	     -7.46700687	      1.34806543	    -13.74224402	     -8.86140256	     20.37180157	     -2.94199446	     -9.39639854	     -0.72814570	     -5.33575604
      1.34000000	     -2.71553115	     -2.32249261	     -3.18299734	     -1.26452274	      0.98200347	     -0.66648870	     31.01227374	     -0.17514970	     -7.16045449	    -20.35155129	      8.45248254	      3.64898042	     -7.73972753	      1.19827801	    -13.75048835	     -8.96963493	     20.76279359	     -2.80915529	     -9.44766229	     -0.58270212	     -5.21632804
      1.35000000	     -2.68930624	     -2.41350191	     -3.10491222	     -1.25889095	      0.98069340	     -0.66615543	     31.00519890	      0.02496489	     -7.45895198	    -19.13606728	      8.42865228	      4.31182257	     -8.06852080	      1.06422713	    -13.74510076	     -9.10292318	     21.12338056	     -2.54002166	     -9.56149631	     -0.45795912	     -5.12404637
      1.36000000	     -2.74745758	     -2.52594017	     -3.02933702	     -1.25311839	      0.97921387	     -0.66573710	     31.08639263	      0.25366975	     -7.73775796	    -18.00179811	      8.29709247	      4.69725683	     -8.28308339	      0.89092543	    -13.73226508	     -9.30481494	     21.53673218	     -2.42297949	     -9.57236374	     -0.30515890	     -5.01177306
      1.37000000	     -2.75648938	     -2.64437497	     -2.92911234	     -1.24715364	      0.97780220	     -0.66528437	     31.08480622	      0.47534533	     -7.96485780	    -16.91821895	      8.25562411	      5.18822248	     -8.53974981	      0.70114387	    -13.72595617	     -9.54502597	     21.89724502	     -2.17211677	     -9.63798601	     -0.14395635	     -4.94419350
